<svg width="182" height="64" viewBox="0 0 182 64" fill="none" xmlns="http://www.w3.org/2000/svg">
<g id="Group 5368">
<rect id="Rectangle 4479" width="182" height="64" rx="6" fill="white"/>
<g id="Group 5365">
<path id="Google Play" d="M90.8468 33.3172C88.4267 33.3172 86.4542 35.158 86.4542 37.6934C86.4542 40.2133 88.4267 42.0695 90.8468 42.0695C93.268 42.0695 95.2405 40.2133 95.2405 37.6934C95.2394 35.158 93.2669 33.3172 90.8468 33.3172ZM90.8468 40.3471C89.5205 40.3471 88.3773 39.2533 88.3773 37.6944C88.3773 36.1191 89.5215 35.0418 90.8468 35.0418C92.1732 35.0418 93.3163 36.1191 93.3163 37.6944C93.3163 39.2522 92.1732 40.3471 90.8468 40.3471ZM81.2632 33.3172C78.8431 33.3172 76.8706 35.158 76.8706 37.6934C76.8706 40.2133 78.8431 42.0695 81.2632 42.0695C83.6843 42.0695 85.6568 40.2133 85.6568 37.6934C85.6568 35.158 83.6843 33.3172 81.2632 33.3172ZM81.2632 40.3471C79.9368 40.3471 78.7937 39.2533 78.7937 37.6944C78.7937 36.1191 79.9379 35.0418 81.2632 35.0418C82.5895 35.0418 83.7327 36.1191 83.7327 37.6944C83.7337 39.2522 82.5895 40.3471 81.2632 40.3471ZM69.8644 34.6611V36.5173H74.3074C74.1747 37.5617 73.8269 38.3241 73.296 38.854C72.6498 39.5002 71.6383 40.2133 69.8644 40.2133C67.1295 40.2133 64.9913 38.0082 64.9913 35.2733C64.9913 32.5383 67.1295 30.3333 69.8644 30.3333C71.3399 30.3333 72.4173 30.9136 73.2126 31.6596L74.5225 30.3497C73.4112 29.2889 71.9367 28.4771 69.8644 28.4771C66.118 28.4771 62.9684 31.5269 62.9684 35.2733C62.9684 39.0197 66.118 42.0695 69.8644 42.0695C71.8863 42.0695 73.4123 41.4058 74.6048 40.1629C75.8313 38.9364 76.2131 37.2118 76.2131 35.8197C76.2131 35.3896 76.1801 34.9914 76.1133 34.66H69.8644V34.6611ZM116.484 36.1026C116.12 35.1251 115.009 33.3172 112.738 33.3172C110.483 33.3172 108.61 35.0912 108.61 37.6934C108.61 40.1464 110.467 42.0695 112.953 42.0695C114.958 42.0695 116.119 40.843 116.6 40.1299L115.109 39.1349C114.612 39.8645 113.931 40.345 112.953 40.345C111.975 40.345 111.279 39.8974 110.831 39.0187L116.683 36.5986L116.484 36.1026ZM110.516 37.5617C110.467 35.8701 111.826 35.0088 112.805 35.0088C113.567 35.0088 114.213 35.3906 114.429 35.937L110.516 37.5617ZM105.759 41.8051H107.682V28.9421H105.759V41.8051ZM102.609 34.2958H102.543C102.112 33.7813 101.282 33.3172 100.239 33.3172C98.0505 33.3172 96.0451 35.2404 96.0451 37.7109C96.0451 40.1639 98.0505 42.0705 100.239 42.0705C101.284 42.0705 102.112 41.6065 102.543 41.0766H102.609V41.7063C102.609 43.3804 101.714 44.2756 100.272 44.2756C99.0949 44.2756 98.3654 43.4308 98.067 42.7178L96.3929 43.4144C96.8734 44.574 98.1493 46.0001 100.272 46.0001C102.526 46.0001 104.433 44.6738 104.433 41.4408V33.5837H102.61V34.2958H102.609ZM100.405 40.3471C99.0785 40.3471 97.9682 39.2358 97.9682 37.7109C97.9682 36.1685 99.0785 35.0418 100.405 35.0418C101.714 35.0418 102.742 36.1685 102.742 37.7109C102.742 39.2358 101.714 40.3471 100.405 40.3471ZM125.492 28.9421H120.891V41.8051H122.81V36.932H125.491C127.619 36.932 129.711 35.3916 129.711 32.9376C129.711 30.4835 127.62 28.9421 125.492 28.9421ZM125.541 35.1416H122.81V30.7325H125.541C126.976 30.7325 127.791 31.921 127.791 32.9376C127.791 33.9336 126.976 35.1416 125.541 35.1416ZM137.407 33.2946C136.017 33.2946 134.577 33.9068 133.982 35.264L135.686 35.975C136.05 35.264 136.729 35.0315 137.44 35.0315C138.433 35.0315 139.442 35.6272 139.459 36.686V36.8188C139.111 36.6202 138.366 36.3228 137.456 36.3228C135.62 36.3228 133.749 37.3322 133.749 39.2183C133.749 40.9397 135.255 42.0479 136.943 42.0479C138.233 42.0479 138.945 41.4686 139.392 40.7895H139.458V41.7824H141.312V36.8507C141.313 34.5685 139.607 33.2946 137.407 33.2946ZM137.174 40.344C136.547 40.344 135.669 40.0291 135.669 39.2512C135.669 38.2583 136.762 37.8776 137.705 37.8776C138.548 37.8776 138.946 38.0597 139.459 38.3077C139.309 39.5002 138.284 40.344 137.174 40.344ZM148.064 33.5755L145.863 39.1524H145.797L143.513 33.5755H141.445L144.87 41.3698L142.917 45.7058H144.919L150.199 33.5755H148.064ZM130.771 41.8051H132.69V28.9421H130.771V41.8051Z" fill="#7264D6"/>
<g id="Get it on">
<path d="M69.529 21.4758C69.529 22.338 69.2739 23.0243 68.7625 23.5367C68.1821 24.1459 67.4248 24.4505 66.4947 24.4505C65.6036 24.4505 64.8452 24.1418 64.2227 23.5244C63.5992 22.906 63.2874 22.1405 63.2874 21.2267C63.2874 20.312 63.5992 19.5465 64.2227 18.9291C64.8452 18.3107 65.6036 18.002 66.4947 18.002C66.9371 18.002 67.36 18.0884 67.7613 18.2603C68.1636 18.4331 68.4857 18.6626 68.7265 18.9497L68.1842 19.493C67.7757 19.0042 67.2129 18.7603 66.4936 18.7603C65.8433 18.7603 65.2815 18.9888 64.8072 19.4456C64.3328 19.9025 64.0962 20.4962 64.0962 21.2257C64.0962 21.9552 64.3328 22.549 64.8072 23.0058C65.2815 23.4627 65.8433 23.6911 66.4936 23.6911C67.183 23.6911 67.7582 23.4616 68.2182 23.0017C68.5166 22.7023 68.6894 22.2855 68.7357 21.7515H66.4936V21.0096H69.4848C69.5157 21.1712 69.529 21.3266 69.529 21.4758Z" fill="#7264D6"/>
<path d="M74.2726 18.8973H71.4615V20.8543H73.9969V21.5962H71.4615V23.5533H74.2726V24.3126H70.6682V18.1389H74.2726V18.8973Z" fill="#7264D6"/>
<path d="M77.6176 24.3126H76.8243V18.8973H75.0998V18.1389H79.3421V18.8973H77.6176V24.3126Z" fill="#7264D6"/>
<path d="M82.4115 24.3126V18.1389H83.2048V24.3126H82.4115Z" fill="#7264D6"/>
<path d="M86.7229 24.3126H85.9296V18.8973H84.2051V18.1389H88.4475V18.8973H86.7229V24.3126Z" fill="#7264D6"/>
<path d="M96.4782 23.5152C95.8711 24.1387 95.1169 24.4505 94.2145 24.4505C93.3121 24.4505 92.5579 24.1387 91.9519 23.5152C91.3448 22.8916 91.0423 22.1282 91.0423 21.2258C91.0423 20.3234 91.3448 19.5599 91.9519 18.9363C92.5579 18.3128 93.3121 18 94.2145 18C95.1118 18 95.865 18.3138 96.4741 18.9405C97.0833 19.5671 97.3878 20.3285 97.3878 21.2258C97.3878 22.1282 97.0843 22.8916 96.4782 23.5152ZM92.5373 22.9976C92.9942 23.4607 93.5529 23.6911 94.2145 23.6911C94.8761 23.6911 95.4359 23.4596 95.8917 22.9976C96.3486 22.5346 96.578 21.944 96.578 21.2258C96.578 20.5076 96.3486 19.9169 95.8917 19.4539C95.4359 18.9909 94.8761 18.7604 94.2145 18.7604C93.5529 18.7604 92.9942 18.9919 92.5373 19.4539C92.0815 19.9169 91.852 20.5076 91.852 21.2258C91.852 21.944 92.0815 22.5346 92.5373 22.9976Z" fill="#7264D6"/>
<path d="M98.5012 24.3126V18.1389H99.4663L102.467 22.941H102.501L102.467 21.7516V18.1389H103.26V24.3126H102.432L99.2924 19.2769H99.2585L99.2924 20.4664V24.3126H98.5012Z" fill="#7264D6"/>
</g>
<g id="Google Play logo">
<path id="Subtract" fill-rule="evenodd" clip-rule="evenodd" d="M31.195 19.1189C31.0695 19.3967 31 19.7389 31 20.1379V42.8943C31 43.2941 31.0695 43.6361 31.1951 43.9138L43.5916 31.5155L31.195 19.1189ZM31.8896 44.6336C32.3504 44.8375 32.9548 44.7779 33.6146 44.4037L48.1947 36.1186L44.2987 32.2226L31.8896 44.6336ZM49.0971 35.6068L53.6802 33.0029C55.1176 32.1849 55.1176 30.8483 53.6802 30.0313L49.0949 27.4258L45.0058 31.5155L49.0971 35.6068ZM48.1931 26.9134L33.6146 18.6295C32.9549 18.2546 32.3505 18.1953 31.8897 18.3994L44.2987 30.8084L48.1931 26.9134Z" fill="#7264D6"/>
</g>
</g>
</g>
</svg>
