<svg width="182" height="64" viewBox="0 0 182 64" fill="none" xmlns="http://www.w3.org/2000/svg">
<g id="Group 5367">
<rect id="Rectangle 4480" width="182" height="64" rx="6" fill="white"/>
<g id="Group 5366">
<g id="App Store">
<path d="M114.889 30.0409V32.5988H113.286V34.2763H114.889V39.9759C114.889 41.9221 115.77 42.7006 117.985 42.7006C118.374 42.7006 118.745 42.6543 119.069 42.5987V40.9397C118.791 40.9676 118.615 40.9861 118.309 40.9861C117.317 40.9861 116.882 40.5227 116.882 39.4662V34.2763H119.069V32.5988H116.882V30.0409H114.889Z" fill="#7264D6"/>
<path d="M124.712 42.8396C127.659 42.8396 129.466 40.8656 129.466 37.5941C129.466 34.3411 127.649 32.3578 124.712 32.3578C121.764 32.3578 119.948 34.3411 119.948 37.5941C119.948 40.8656 121.755 42.8396 124.712 42.8396ZM124.712 41.0695C122.979 41.0695 122.005 39.7998 122.005 37.5941C122.005 35.4069 122.979 34.128 124.712 34.128C126.435 34.128 127.418 35.4069 127.418 37.5941C127.418 39.7906 126.435 41.0695 124.712 41.0695Z" fill="#7264D6"/>
<path d="M131.012 42.645H133.005V36.6859C133.005 35.2679 134.071 34.3133 135.581 34.3133C135.933 34.3133 136.526 34.3782 136.693 34.4338V32.4691C136.48 32.4134 136.1 32.3856 135.804 32.3856C134.488 32.3856 133.366 33.1085 133.079 34.1002H132.931V32.5525H131.012V42.645Z" fill="#7264D6"/>
<path d="M141.641 34.0538C143.114 34.0538 144.078 35.0825 144.125 36.6673H139.027C139.138 35.0918 140.167 34.0538 141.641 34.0538ZM144.115 39.9203C143.745 40.7081 142.92 41.1436 141.715 41.1436C140.121 41.1436 139.092 40.0222 139.027 38.2521V38.1409H146.154V37.4458C146.154 34.2763 144.458 32.3578 141.65 32.3578C138.805 32.3578 136.998 34.406 136.998 37.6312C136.998 40.8563 138.768 42.8396 141.659 42.8396C143.967 42.8396 145.58 41.7275 146.034 39.9203H144.115Z" fill="#7264D6"/>
<path d="M101.822 38.918C101.976 41.3963 104.041 42.9812 107.115 42.9812C110.4 42.9812 112.456 41.3194 112.456 38.6682C112.456 36.5838 111.284 35.4311 108.441 34.7683L106.913 34.3937C105.108 33.971 104.378 33.4043 104.378 32.4149C104.378 31.1662 105.511 30.3497 107.211 30.3497C108.825 30.3497 109.939 31.147 110.141 32.4245H112.235C112.11 30.0903 110.055 28.4478 107.24 28.4478C104.214 28.4478 102.197 30.0903 102.197 32.559C102.197 34.5954 103.34 35.8057 105.847 36.3917L107.634 36.8239C109.469 37.2562 110.275 37.8902 110.275 38.9468C110.275 40.1763 109.007 41.0697 107.278 41.0697C105.425 41.0697 104.137 40.234 103.955 38.918H101.822Z" fill="#7264D6"/>
<path d="M81.1815 32.3856C79.8099 32.3856 78.6236 33.0715 78.012 34.2207H77.8637V32.5525H75.9452V45.9999H77.9378V41.1158H78.0954C78.6236 42.1816 79.7636 42.8118 81.2 42.8118C83.7487 42.8118 85.3705 40.8007 85.3705 37.5941C85.3705 34.3875 83.7487 32.3856 81.1815 32.3856ZM80.6162 41.0232C78.948 41.0232 77.9007 39.7071 77.9007 37.6034C77.9007 35.4903 78.948 34.1743 80.6255 34.1743C82.3122 34.1743 83.3224 35.4625 83.3224 37.5941C83.3224 39.7349 82.3122 41.0232 80.6162 41.0232Z" fill="#7264D6"/>
<path d="M92.3428 32.3856C90.9712 32.3856 89.7849 33.0715 89.1733 34.2207H89.025V32.5525H87.1066V45.9999H89.0991V41.1158H89.2567C89.7849 42.1816 90.9249 42.8118 92.3613 42.8118C94.91 42.8118 96.5318 40.8007 96.5318 37.5941C96.5318 34.3875 94.91 32.3856 92.3428 32.3856ZM91.7775 41.0232C90.1093 41.0232 89.062 39.7071 89.062 37.6034C89.062 35.4903 90.1093 34.1743 91.7868 34.1743C93.4735 34.1743 94.4837 35.4625 94.4837 37.5941C94.4837 39.7349 93.4735 41.0232 91.7775 41.0232Z" fill="#7264D6"/>
<path d="M72.3703 42.645H74.6564L69.6518 28.784H67.3369L62.3323 42.645H64.5416L65.8192 38.966H71.1023L72.3703 42.645ZM68.3839 31.3007H68.5472L70.5548 37.1601H66.3667L68.3839 31.3007Z" fill="#7264D6"/>
</g>
<g id="Download on the">
<path d="M63.6707 18.329V25.0157H66.085C68.0775 25.0157 69.2313 23.7877 69.2313 21.6515C69.2313 19.5477 68.0682 18.329 66.085 18.329H63.6707ZM64.7087 19.2743H65.9691C67.3546 19.2743 68.1748 20.1547 68.1748 21.6654C68.1748 23.1992 67.3685 24.0704 65.9691 24.0704H64.7087V19.2743Z" fill="#7264D6"/>
<path d="M72.7651 25.113C74.2387 25.113 75.1423 24.126 75.1423 22.4902C75.1423 20.8637 74.2341 19.8721 72.7651 19.8721C71.2916 19.8721 70.3833 20.8637 70.3833 22.4902C70.3833 24.126 71.2869 25.113 72.7651 25.113ZM72.7651 24.2279C71.8986 24.2279 71.412 23.5931 71.412 22.4902C71.412 21.3966 71.8986 20.7571 72.7651 20.7571C73.627 20.7571 74.1182 21.3966 74.1182 22.4902C74.1182 23.5884 73.627 24.2279 72.7651 24.2279Z" fill="#7264D6"/>
<path d="M82.8373 19.9694H81.841L80.942 23.8201H80.8633L79.8253 19.9694H78.8707L77.8327 23.8201H77.7586L76.855 19.9694H75.8448L77.235 25.0157H78.259L79.297 21.2993H79.3758L80.4184 25.0157H81.4518L82.8373 19.9694Z" fill="#7264D6"/>
<path d="M83.9846 25.0157H84.9809V22.0639C84.9809 21.2761 85.4489 20.785 86.1857 20.785C86.9225 20.785 87.2747 21.1881 87.2747 21.999V25.0157H88.271V21.7488C88.271 20.5486 87.65 19.8721 86.524 19.8721C85.764 19.8721 85.2636 20.2104 85.018 20.771H84.9438V19.9694H83.9846V25.0157Z" fill="#7264D6"/>
<path d="M89.84 25.0157H90.8363V18H89.84V25.0157Z" fill="#7264D6"/>
<path d="M94.5832 25.113C96.0568 25.113 96.9604 24.126 96.9604 22.4902C96.9604 20.8637 96.0521 19.8721 94.5832 19.8721C93.1096 19.8721 92.2014 20.8637 92.2014 22.4902C92.2014 24.126 93.105 25.113 94.5832 25.113ZM94.5832 24.2279C93.7167 24.2279 93.2301 23.5931 93.2301 22.4902C93.2301 21.3966 93.7167 20.7571 94.5832 20.7571C95.4451 20.7571 95.9363 21.3966 95.9363 22.4902C95.9363 23.5884 95.4451 24.2279 94.5832 24.2279Z" fill="#7264D6"/>
<path d="M99.9288 24.2603C99.3867 24.2603 98.9928 23.9962 98.9928 23.5421C98.9928 23.0972 99.3079 22.8609 100.003 22.8146L101.236 22.7358V23.1575C101.236 23.7831 100.68 24.2603 99.9288 24.2603ZM99.674 25.0991C100.337 25.0991 100.888 24.8118 101.189 24.3067H101.268V25.0157H102.227V21.5681C102.227 20.5023 101.514 19.8721 100.249 19.8721C99.104 19.8721 98.2884 20.4281 98.1865 21.2947H99.1503C99.2615 20.9379 99.6462 20.734 100.202 20.734C100.883 20.734 101.236 21.0352 101.236 21.5681V22.0037L99.8686 22.0824C98.6684 22.1566 97.9919 22.6802 97.9919 23.5884C97.9919 24.5106 98.7008 25.0991 99.674 25.0991Z" fill="#7264D6"/>
<path d="M105.608 25.0991C106.303 25.0991 106.892 24.7701 107.193 24.2186H107.272V25.0157H108.226V18H107.23V20.771H107.156C106.882 20.215 106.299 19.886 105.608 19.886C104.334 19.886 103.514 20.8962 103.514 22.4902C103.514 24.0889 104.325 25.0991 105.608 25.0991ZM105.891 20.7803C106.725 20.7803 107.248 21.443 107.248 22.4948C107.248 23.5514 106.729 24.2047 105.891 24.2047C105.047 24.2047 104.542 23.5606 104.542 22.4902C104.542 21.4291 105.052 20.7803 105.891 20.7803Z" fill="#7264D6"/>
<path d="M114.687 25.113C116.16 25.113 117.064 24.126 117.064 22.4902C117.064 20.8637 116.156 19.8721 114.687 19.8721C113.213 19.8721 112.305 20.8637 112.305 22.4902C112.305 24.126 113.209 25.113 114.687 25.113ZM114.687 24.2279C113.82 24.2279 113.334 23.5931 113.334 22.4902C113.334 21.3966 113.82 20.7571 114.687 20.7571C115.549 20.7571 116.04 21.3966 116.04 22.4902C116.04 23.5884 115.549 24.2279 114.687 24.2279Z" fill="#7264D6"/>
<path d="M118.383 25.0157H119.379V22.0639C119.379 21.2761 119.847 20.785 120.584 20.785C121.321 20.785 121.673 21.1881 121.673 21.999V25.0157H122.669V21.7488C122.669 20.5486 122.048 19.8721 120.922 19.8721C120.162 19.8721 119.662 20.2104 119.416 20.771H119.342V19.9694H118.383V25.0157Z" fill="#7264D6"/>
<path d="M127.257 18.7136V19.9926H126.456V20.8313H127.257V23.6811C127.257 24.6542 127.698 25.0435 128.805 25.0435C129 25.0435 129.185 25.0203 129.347 24.9925V24.163C129.208 24.1769 129.12 24.1862 128.967 24.1862C128.472 24.1862 128.254 23.9545 128.254 23.4263V20.8313H129.347V19.9926H128.254V18.7136H127.257Z" fill="#7264D6"/>
<path d="M130.685 25.0157H131.681V22.0685C131.681 21.3039 132.135 20.7896 132.951 20.7896C133.655 20.7896 134.03 21.1974 134.03 22.0037V25.0157H135.027V21.7581C135.027 20.5579 134.364 19.8767 133.289 19.8767C132.529 19.8767 131.996 20.215 131.75 20.7803H131.672V18H130.685V25.0157Z" fill="#7264D6"/>
<path d="M138.621 20.7201C139.357 20.7201 139.839 21.2344 139.863 22.0268H137.314C137.369 21.2391 137.884 20.7201 138.621 20.7201ZM139.858 23.6533C139.673 24.0472 139.26 24.265 138.658 24.265C137.861 24.265 137.346 23.7043 137.314 22.8192V22.7636H140.877V22.4161C140.877 20.8313 140.029 19.8721 138.625 19.8721C137.203 19.8721 136.299 20.8962 136.299 22.5087C136.299 24.1213 137.184 25.113 138.63 25.113C139.784 25.113 140.59 24.5569 140.817 23.6533H139.858Z" fill="#7264D6"/>
</g>
<g id="Apple logo">
<path d="M51.521 31.2692C51.5452 29.3924 52.5531 27.6165 54.1521 26.6334C53.1434 25.1928 51.4538 24.2794 49.696 24.2244C47.8212 24.0276 46.0036 25.3463 45.0482 25.3463C44.0743 25.3463 42.6033 24.244 41.0193 24.2766C38.9547 24.3433 37.0299 25.5171 36.0254 27.3222C33.8661 31.0607 35.4767 36.5549 37.5451 39.5768C38.58 41.0566 39.7895 42.7095 41.372 42.6509C42.9207 42.5866 43.4991 41.6634 45.3684 41.6634C47.2204 41.6634 47.763 42.6509 49.3777 42.6136C51.0395 42.5866 52.0865 41.1273 53.085 39.6335C53.8286 38.5792 54.4007 37.4139 54.7803 36.1808C52.8274 35.3548 51.5233 33.3895 51.521 31.2692Z" fill="#7264D6"/>
<path d="M48.4711 22.2371C49.3772 21.1494 49.8236 19.7513 49.7155 18.3398C48.3312 18.4852 47.0526 19.1468 46.1343 20.1928C45.2363 21.2147 44.769 22.5882 44.8573 23.9457C46.2421 23.96 47.6034 23.3163 48.4711 22.2371Z" fill="#7264D6"/>
</g>
</g>
</g>
</svg>
