<svg width="103" height="24" viewBox="0 0 103 24" fill="none" xmlns="http://www.w3.org/2000/svg">
<path d="M23.2969 19.0313H0.703125C0.314812 19.0313 0 19.346 0 19.7344C0 20.8994 0.944391 21.8438 2.10938 21.8438H21.8906C23.0556 21.8438 24 20.8994 24 19.7344C24 19.346 23.6852 19.0313 23.2969 19.0313Z" fill="#7264D6"/>
<path d="M17.625 5.67194V5.32038C17.625 5.05394 17.4746 4.81089 17.2364 4.69141L12.3145 2.23047C12.1167 2.13161 11.8833 2.13161 11.6855 2.23047L6.76364 4.69141C6.52538 4.81089 6.375 5.05394 6.375 5.32038V5.67194C6.375 6.06058 6.68948 6.37506 7.07812 6.37506H16.9219C17.3105 6.37506 17.625 6.06058 17.625 5.67194Z" fill="#7264D6"/>
<path d="M8.48438 7.78125H11.2969V13.4062H8.48438V7.78125Z" fill="#7264D6"/>
<path d="M12.7031 7.78125H15.5156V13.4062H12.7031V7.78125Z" fill="#7264D6"/>
<path d="M5.01759 4.96875H2.10938C1.72073 4.96875 1.40625 5.28323 1.40625 5.67188V17.625H22.5938V5.67188C22.5938 5.28323 22.2793 4.96875 21.8906 4.96875H18.9824C19.002 5.08523 19.0312 5.19919 19.0312 5.32031V5.67188C19.0312 6.83503 18.085 7.78125 16.9219 7.78125V13.4062H17.625C18.0136 13.4062 18.3281 13.7207 18.3281 14.1094C18.3281 14.498 18.0136 14.8125 17.625 14.8125H6.375C5.98636 14.8125 5.67188 14.498 5.67188 14.1094C5.67188 13.7207 5.98636 13.4062 6.375 13.4062H7.07812V7.78125C5.91497 7.78125 4.96875 6.83503 4.96875 5.67188V5.32031C4.96875 5.19919 4.99795 5.08523 5.01759 4.96875Z" fill="#7264D6"/>
<path d="M36.3672 8.01562C35.2943 8.01562 34.4505 8.39583 33.8359 9.15625C33.2214 9.91667 32.9141 10.9661 32.9141 12.3047C32.9141 13.7057 33.2083 14.7656 33.7969 15.4844C34.3906 16.2031 35.2474 16.5625 36.3672 16.5625C36.8516 16.5625 37.3203 16.5156 37.7734 16.4219C38.2266 16.3229 38.6979 16.1979 39.1875 16.0469V17.6484C38.2917 17.987 37.276 18.1562 36.1406 18.1562C34.4688 18.1562 33.1849 17.651 32.2891 16.6406C31.3932 15.625 30.9453 14.1745 30.9453 12.2891C30.9453 11.1016 31.1615 10.0625 31.5938 9.17188C32.0312 8.28125 32.6615 7.59896 33.4844 7.125C34.3073 6.65104 35.2734 6.41406 36.3828 6.41406C37.5495 6.41406 38.6276 6.65885 39.6172 7.14844L38.9453 8.70312C38.5599 8.52083 38.151 8.36198 37.7188 8.22656C37.2917 8.08594 36.8411 8.01562 36.3672 8.01562Z" fill="black"/>
<path d="M45.2266 18.1562C43.8828 18.1562 42.8307 17.7656 42.0703 16.9844C41.3151 16.1979 40.9375 15.1172 40.9375 13.7422C40.9375 12.3307 41.2891 11.2214 41.9922 10.4141C42.6953 9.60677 43.6615 9.20312 44.8906 9.20312C46.0312 9.20312 46.9323 9.54948 47.5938 10.2422C48.2552 10.9349 48.5859 11.888 48.5859 13.1016V14.0938H42.8281C42.8542 14.9323 43.0807 15.5781 43.5078 16.0312C43.9349 16.4792 44.5365 16.7031 45.3125 16.7031C45.8229 16.7031 46.2969 16.6562 46.7344 16.5625C47.1771 16.4635 47.651 16.3021 48.1562 16.0781V17.5703C47.7083 17.7839 47.2552 17.9349 46.7969 18.0234C46.3385 18.112 45.8151 18.1562 45.2266 18.1562ZM44.8906 10.5938C44.3073 10.5938 43.8385 10.7786 43.4844 11.1484C43.1354 11.5182 42.9271 12.0573 42.8594 12.7656H46.7812C46.7708 12.0521 46.599 11.513 46.2656 11.1484C45.9323 10.7786 45.474 10.5938 44.8906 10.5938Z" fill="black"/>
<path d="M52.5078 18H50.6719V5.84375H52.5078V18Z" fill="black"/>
<path d="M62.8047 13.6641C62.8047 15.0755 62.4427 16.1771 61.7188 16.9688C60.9948 17.7604 59.987 18.1562 58.6953 18.1562C57.888 18.1562 57.1745 17.974 56.5547 17.6094C55.9349 17.2448 55.4583 16.7214 55.125 16.0391C54.7917 15.3568 54.625 14.5651 54.625 13.6641C54.625 12.263 54.9844 11.1693 55.7031 10.3828C56.4219 9.59635 57.4349 9.20312 58.7422 9.20312C59.9922 9.20312 60.9818 9.60677 61.7109 10.4141C62.4401 11.2161 62.8047 12.2995 62.8047 13.6641ZM56.5156 13.6641C56.5156 15.6589 57.2526 16.6562 58.7266 16.6562C60.1849 16.6562 60.9141 15.6589 60.9141 13.6641C60.9141 11.6901 60.1797 10.7031 58.7109 10.7031C57.9401 10.7031 57.3802 10.9583 57.0312 11.4688C56.6875 11.9792 56.5156 12.7109 56.5156 13.6641Z" fill="black"/>
<path d="M65.1172 6.57812H68.5078C70.0807 6.57812 71.2161 6.80729 71.9141 7.26562C72.6172 7.72396 72.9688 8.44792 72.9688 9.4375C72.9688 10.1042 72.7969 10.6589 72.4531 11.1016C72.1094 11.5443 71.6146 11.8229 70.9688 11.9375V12.0156C71.7708 12.1667 72.3594 12.4661 72.7344 12.9141C73.1146 13.3568 73.3047 13.9583 73.3047 14.7188C73.3047 15.7448 72.9453 16.5495 72.2266 17.1328C71.513 17.7109 70.5182 18 69.2422 18H65.1172V6.57812ZM66.9844 11.2969H68.7812C69.5625 11.2969 70.1328 11.1745 70.4922 10.9297C70.8516 10.6797 71.0312 10.2578 71.0312 9.66406C71.0312 9.1276 70.8359 8.73958 70.4453 8.5C70.0599 8.26042 69.4453 8.14062 68.6016 8.14062H66.9844V11.2969ZM66.9844 12.8125V16.4297H68.9688C69.75 16.4297 70.3385 16.2812 70.7344 15.9844C71.1354 15.6823 71.3359 15.2083 71.3359 14.5625C71.3359 13.9688 71.1328 13.5286 70.7266 13.2422C70.3203 12.9557 69.7031 12.8125 68.875 12.8125H66.9844Z" fill="black"/>
<path d="M80.8906 18L80.5234 16.7969H80.4609C80.0443 17.3229 79.625 17.6823 79.2031 17.875C78.7812 18.0625 78.2396 18.1562 77.5781 18.1562C76.7292 18.1562 76.0651 17.9271 75.5859 17.4688C75.112 17.0104 74.875 16.362 74.875 15.5234C74.875 14.6328 75.2057 13.9609 75.8672 13.5078C76.5286 13.0547 77.5365 12.8073 78.8906 12.7656L80.3828 12.7188V12.2578C80.3828 11.7057 80.2526 11.2943 79.9922 11.0234C79.737 10.7474 79.3385 10.6094 78.7969 10.6094C78.3542 10.6094 77.9297 10.6745 77.5234 10.8047C77.1172 10.9349 76.7266 11.0885 76.3516 11.2656L75.7578 9.95312C76.2266 9.70833 76.7396 9.52344 77.2969 9.39844C77.8542 9.26823 78.3802 9.20312 78.875 9.20312C79.974 9.20312 80.8021 9.44271 81.3594 9.92188C81.9219 10.401 82.2031 11.1536 82.2031 12.1797V18H80.8906ZM78.1562 16.75C78.8229 16.75 79.3568 16.5651 79.7578 16.1953C80.1641 15.8203 80.3672 15.2969 80.3672 14.625V13.875L79.2578 13.9219C78.3932 13.9531 77.763 14.099 77.3672 14.3594C76.9766 14.6146 76.7812 15.0078 76.7812 15.5391C76.7812 15.9245 76.8958 16.224 77.125 16.4375C77.3542 16.6458 77.6979 16.75 78.1562 16.75Z" fill="black"/>
<path d="M92.3672 18H90.5234V12.6875C90.5234 12.0208 90.388 11.5234 90.1172 11.1953C89.8516 10.8672 89.4271 10.7031 88.8438 10.7031C88.0677 10.7031 87.5 10.9323 87.1406 11.3906C86.7812 11.849 86.6016 12.6172 86.6016 13.6953V18H84.7656V9.35938H86.2031L86.4609 10.4922H86.5547C86.8151 10.0807 87.1849 9.76302 87.6641 9.53906C88.1432 9.3151 88.6745 9.20312 89.2578 9.20312C91.3307 9.20312 92.3672 10.2578 92.3672 12.3672V18Z" fill="black"/>
<path d="M96.6953 13.4375L97.7344 12.1406L100.344 9.35938H102.461L98.9844 13.0703L102.68 18H100.523L97.75 14.2109L96.7422 15.0391V18H94.9219V5.84375H96.7422V11.7734L96.6484 13.4375H96.6953Z" fill="black"/>
</svg>
